<svg aria-roledescription="er" role="graphics-document document" viewBox="-386.1050109863281 0 1916.2838134765625 1165" style="max-width: 1916.2838134765625px;" xmlns="http://www.w3.org/2000/svg" width="100%" id="graph1"><style>#graph1{font-family:"trebuchet ms",verdana,arial,sans-serif;font-size:16px;fill:#333;}#graph1 .error-icon{fill:#552222;}#graph1 .error-text{fill:#552222;stroke:#552222;}#graph1 .edge-thickness-normal{stroke-width:2px;}#graph1 .edge-thickness-thick{stroke-width:3.5px;}#graph1 .edge-pattern-solid{stroke-dasharray:0;}#graph1 .edge-pattern-dashed{stroke-dasharray:3;}#graph1 .edge-pattern-dotted{stroke-dasharray:2;}#graph1 .marker{fill:#333333;stroke:#333333;}#graph1 .marker.cross{stroke:#333333;}#graph1 svg{font-family:"trebuchet ms",verdana,arial,sans-serif;font-size:16px;}#graph1 .entityBox{fill:#ECECFF;stroke:#9370DB;}#graph1 .attributeBoxOdd{fill:#ffffff;stroke:#9370DB;}#graph1 .attributeBoxEven{fill:#f2f2f2;stroke:#9370DB;}#graph1 .relationshipLabelBox{fill:hsl(80, 100%, 96.2745098039%);opacity:0.7;background-color:hsl(80, 100%, 96.2745098039%);}#graph1 .relationshipLabelBox rect{opacity:0.5;}#graph1 .relationshipLine{stroke:#333333;}#graph1 .entityTitleText{text-anchor:middle;font-size:18px;fill:#333;}#graph1 :root{--mermaid-font-family:"trebuchet ms",verdana,arial,sans-serif;}</style><g></g><defs><marker orient="auto" markerHeight="18" markerWidth="18" refY="9" refX="0" id="ONLY_ONE_START"><path d="M9,0 L9,18 M15,0 L15,18" fill="none" stroke="gray"></path></marker></defs><defs><marker orient="auto" markerHeight="18" markerWidth="18" refY="9" refX="18" id="ONLY_ONE_END"><path d="M3,0 L3,18 M9,0 L9,18" fill="none" stroke="gray"></path></marker></defs><defs><marker orient="auto" markerHeight="18" markerWidth="30" refY="9" refX="0" id="ZERO_OR_ONE_START"><circle r="6" cy="9" cx="21" fill="white" stroke="gray"></circle><path d="M9,0 L9,18" fill="none" stroke="gray"></path></marker></defs><defs><marker orient="auto" markerHeight="18" markerWidth="30" refY="9" refX="30" id="ZERO_OR_ONE_END"><circle r="6" cy="9" cx="9" fill="white" stroke="gray"></circle><path d="M21,0 L21,18" fill="none" stroke="gray"></path></marker></defs><defs><marker orient="auto" markerHeight="36" markerWidth="45" refY="18" refX="18" id="ONE_OR_MORE_START"><path d="M0,18 Q 18,0 36,18 Q 18,36 0,18 M42,9 L42,27" fill="none" stroke="gray"></path></marker></defs><defs><marker orient="auto" markerHeight="36" markerWidth="45" refY="18" refX="27" id="ONE_OR_MORE_END"><path d="M3,9 L3,27 M9,18 Q27,0 45,18 Q27,36 9,18" fill="none" stroke="gray"></path></marker></defs><defs><marker orient="auto" markerHeight="36" markerWidth="57" refY="18" refX="18" id="ZERO_OR_MORE_START"><circle r="6" cy="18" cx="48" fill="white" stroke="gray"></circle><path d="M0,18 Q18,0 36,18 Q18,36 0,18" fill="none" stroke="gray"></path></marker></defs><defs><marker orient="auto" markerHeight="36" markerWidth="57" refY="18" refX="39" id="ZERO_OR_MORE_END"><circle r="6" cy="18" cx="9" fill="white" stroke="gray"></circle><path d="M21,18 Q39,0 57,18 Q39,36 21,18" fill="none" stroke="gray"></path></marker></defs><path style="stroke: gray; fill: none;" marker-start="url(#ONLY_ONE_START)" marker-end="url(#ZERO_OR_MORE_END)" d="M483.904,64.84L375.569,78.2C267.234,91.56,50.565,118.28,-57.77,146.223C-166.105,174.167,-166.105,203.333,-166.105,232.5C-166.105,261.667,-166.105,290.833,-166.105,320C-166.105,349.167,-166.105,378.333,-166.105,407.5C-166.105,436.667,-166.105,465.833,-166.105,495C-166.105,524.167,-166.105,553.333,-166.105,582.5C-166.105,611.667,-166.105,640.833,-135.087,666.08C-104.07,691.326,-42.035,712.652,-11.017,723.315L20,733.979" class="er relationshipLine"></path><path style="stroke: gray; fill: none;" marker-start="url(#ONLY_ONE_START)" marker-end="url(#ZERO_OR_MORE_END)" d="M602.935,87.339L622.103,96.949C641.271,106.559,679.608,125.78,698.776,149.973C717.944,174.167,717.944,203.333,717.944,232.5C717.944,261.667,717.944,290.833,717.944,320C717.944,349.167,717.944,378.333,717.944,407.5C717.944,436.667,717.944,465.833,744.889,490.354C771.833,514.876,825.722,534.751,852.666,544.689L879.61,554.627" class="er relationshipLine"></path><path style="stroke: gray; fill: none;" marker-start="url(#ONLY_ONE_START)" marker-end="url(#ZERO_OR_MORE_END)" d="M483.904,88.052L465.414,97.543C446.924,107.034,409.945,126.017,391.455,150.092C372.966,174.167,372.966,203.333,372.966,232.5C372.966,261.667,372.966,290.833,372.966,320C372.966,349.167,372.966,378.333,372.966,407.5C372.966,436.667,372.966,465.833,388.977,488.75C404.989,511.667,437.012,528.333,453.024,536.667L469.035,545" class="er relationshipLine"></path><path style="stroke: gray; fill: none;" marker-start="url(#ONLY_ONE_START)" marker-end="url(#ZERO_OR_MORE_END)" d="M602.935,71.988L652.921,84.157C702.907,96.326,802.879,120.663,852.865,141.165C902.851,161.667,902.851,178.333,902.851,186.667L902.851,195" class="er relationshipLine"></path><path style="stroke: gray; fill: none;" marker-start="url(#ONLY_ONE_START)" marker-end="url(#ZERO_OR_MORE_END)" d="M602.935,67.067L683.739,80.056C764.542,93.045,926.15,119.022,1006.953,146.594C1087.757,174.167,1087.757,203.333,1087.757,232.5C1087.757,261.667,1087.757,290.833,1097.281,313.75C1106.804,336.667,1125.852,353.333,1135.376,361.667L1144.9,370" class="er relationshipLine"></path><path style="stroke: gray; fill: none;" marker-start="url(#ONLY_ONE_START)" marker-end="url(#ZERO_OR_MORE_END)" d="M483.904,63.933L358.902,77.444C233.901,90.955,-16.102,117.978,-141.104,146.072C-266.105,174.167,-266.105,203.333,-266.105,232.5C-266.105,261.667,-266.105,290.833,-266.105,320C-266.105,349.167,-266.105,378.333,-266.105,407.5C-266.105,436.667,-266.105,465.833,-266.105,495C-266.105,524.167,-266.105,553.333,-266.105,582.5C-266.105,611.667,-266.105,640.833,-266.105,670C-266.105,699.167,-266.105,728.333,-266.105,757.5C-266.105,786.667,-266.105,815.833,-213.812,840.585C-161.519,865.336,-56.934,885.672,-4.641,895.84L47.652,906.008" class="er relationshipLine"></path><path style="stroke: gray; fill: none;" marker-start="url(#ONLY_ONE_START)" marker-end="url(#ZERO_OR_MORE_END)" d="M20,770.672L-44.351,783.06C-108.702,795.448,-237.403,820.224,-301.754,847.195C-366.105,874.167,-366.105,903.333,-366.105,932.5C-366.105,961.667,-366.105,990.833,-176.454,1019.03C13.198,1047.227,392.5,1074.455,582.151,1088.068L771.803,1101.682" class="er relationshipLine"></path><path style="stroke: gray; fill: none;" marker-start="url(#ONLY_ONE_START)" marker-end="url(#ZERO_OR_MORE_END)" d="M88.421,795L88.421,803.333C88.421,811.667,88.421,828.333,97.514,845C106.606,861.667,124.792,878.333,133.885,886.667L142.978,895" class="er relationshipLine"></path><path style="stroke: gray; fill: none;" marker-start="url(#ONLY_ONE_START)" marker-end="url(#ZERO_OR_MORE_END)" d="M320.138,896.813L353.106,888.177C386.074,879.542,452.009,862.271,424.793,841.375C397.577,820.479,277.209,795.959,217.026,783.699L156.842,771.438" class="er relationshipLine"></path><path style="stroke: gray; fill: none;" marker-start="url(#ONLY_ONE_START)" marker-end="url(#ZERO_OR_MORE_END)" d="M183.895,970L183.895,978.333C183.895,986.667,183.895,1003.333,281.88,1024.483C379.864,1045.633,575.833,1071.266,673.818,1084.082L771.803,1096.899" class="er relationshipLine"></path><path style="stroke: gray; fill: none;" marker-start="url(#ONLY_ONE_START)" marker-end="url(#ZERO_OR_MORE_END)" d="M897.366,620L884.517,628.333C871.669,636.667,845.973,653.333,833.125,676.25C820.276,699.167,820.276,728.333,820.276,757.5C820.276,786.667,820.276,815.833,820.276,845C820.276,874.167,820.276,903.333,820.276,932.5C820.276,961.667,820.276,990.833,823.379,1013.75C826.481,1036.667,832.686,1053.333,835.788,1061.667L838.89,1070" class="er relationshipLine"></path><path style="stroke: gray; fill: none;" marker-start="url(#ONLY_ONE_START)" marker-end="url(#ZERO_OR_MORE_END)" d="M879.61,588.975L721.991,602.479C564.372,615.983,249.133,642.992,106.231,664.829C-36.671,686.667,-7.238,703.333,7.479,711.667L22.196,720" class="er relationshipLine"></path><path style="stroke: gray; fill: none;" marker-start="url(#ONLY_ONE_START)" marker-end="url(#ZERO_OR_MORE_END)" d="M1030.755,605.901L1065.255,616.584C1099.756,627.267,1168.756,648.634,1203.257,673.9C1237.757,699.167,1237.757,728.333,1237.757,757.5C1237.757,786.667,1237.757,815.833,1237.757,838.75C1237.757,861.667,1237.757,878.333,1237.757,886.667L1237.757,895" class="er relationshipLine"></path><path style="stroke: gray; fill: none;" marker-start="url(#ONLY_ONE_START)" marker-end="url(#ZERO_OR_MORE_END)" d="M619.229,595.007L697.317,607.506C775.405,620.005,931.581,645.002,1009.669,672.085C1087.757,699.167,1087.757,728.333,1087.757,757.5C1087.757,786.667,1087.757,815.833,1087.757,845C1087.757,874.167,1087.757,903.333,1087.757,932.5C1087.757,961.667,1087.757,990.833,1062.114,1014.968C1036.471,1039.104,985.185,1058.207,959.542,1067.759L933.898,1077.311" class="er relationshipLine"></path><path style="stroke: gray; fill: none;" marker-start="url(#ONLY_ONE_START)" marker-end="url(#ZERO_OR_MORE_END)" d="M462.946,595.981L391.437,608.317C319.929,620.654,176.912,645.327,110.596,665.997C44.281,686.667,54.667,703.333,59.86,711.667L65.053,720" class="er relationshipLine"></path><path style="stroke: gray; fill: none;" marker-start="url(#ONLY_ONE_START)" marker-end="url(#ZERO_OR_MORE_END)" d="M476.802,620L462.516,628.333C448.23,636.667,419.659,653.333,405.373,676.25C391.087,699.167,391.087,728.333,391.087,757.5C391.087,786.667,391.087,815.833,371.355,838.75C351.622,861.667,312.157,878.333,292.424,886.667L272.692,895" class="er relationshipLine"></path><path style="stroke: gray; fill: none;" marker-start="url(#ONLY_ONE_START)" marker-end="url(#ZERO_OR_MORE_END)" d="M1237.757,970L1237.757,978.333C1237.757,986.667,1237.757,1003.333,1187.114,1023.179C1136.471,1043.025,1035.185,1066.05,984.542,1077.563L933.898,1089.076" class="er relationshipLine"></path><path style="stroke: gray; fill: none;" marker-start="url(#ONLY_ONE_START)" marker-end="url(#ZERO_OR_MORE_END)" d="M987.757,247.821L1054.424,259.851C1121.09,271.881,1254.424,295.94,1321.09,322.554C1387.757,349.167,1387.757,378.333,1387.757,407.5C1387.757,436.667,1387.757,465.833,1387.757,495C1387.757,524.167,1387.757,553.333,1387.757,582.5C1387.757,611.667,1387.757,640.833,1387.757,670C1387.757,699.167,1387.757,728.333,1387.757,757.5C1387.757,786.667,1387.757,815.833,1387.757,845C1387.757,874.167,1387.757,903.333,1387.757,932.5C1387.757,961.667,1387.757,990.833,1312.114,1017.79C1236.471,1044.747,1085.185,1069.495,1009.542,1081.868L933.898,1094.242" class="er relationshipLine"></path><path style="stroke: gray; fill: none;" marker-start="url(#ONLY_ONE_START)" marker-end="url(#ZERO_OR_MORE_END)" d="M817.944,242.162L703.936,255.135C589.928,268.108,361.911,294.054,247.903,321.61C133.895,349.167,133.895,378.333,133.895,407.5C133.895,436.667,133.895,465.833,133.895,495C133.895,524.167,133.895,553.333,133.895,582.5C133.895,611.667,133.895,640.833,129.564,663.75C125.233,686.667,116.572,703.333,112.241,711.667L107.91,720" class="er relationshipLine"></path><path style="stroke: gray; fill: none;" marker-start="url(#ONLY_ONE_START)" marker-end="url(#ZERO_OR_MORE_END)" d="M987.757,258.576L1021.09,268.814C1054.424,279.051,1121.09,299.525,1154.424,318.096C1187.757,336.667,1187.757,353.333,1187.757,361.667L1187.757,370" class="er relationshipLine"></path><path style="stroke: gray; fill: none;" marker-start="url(#ONLY_ONE_START)" marker-end="url(#ZERO_OR_MORE_END)" d="M817.944,258.576L784.611,268.814C751.278,279.051,684.611,299.525,651.278,324.346C617.944,349.167,617.944,378.333,617.944,407.5C617.944,436.667,617.944,465.833,610.625,488.75C603.305,511.667,588.666,528.333,581.346,536.667L574.026,545" class="er relationshipLine"></path><path style="stroke: gray; fill: none;" marker-start="url(#ONLY_ONE_START)" marker-end="url(#ZERO_OR_MORE_END)" d="M1237.844,422.109L1279.496,434.257C1321.148,446.406,1404.452,470.703,1446.105,497.435C1487.757,524.167,1487.757,553.333,1487.757,582.5C1487.757,611.667,1487.757,640.833,1487.757,670C1487.757,699.167,1487.757,728.333,1487.757,757.5C1487.757,786.667,1487.757,815.833,1487.757,845C1487.757,874.167,1487.757,903.333,1487.757,932.5C1487.757,961.667,1487.757,990.833,1395.447,1018.138C1303.137,1045.443,1118.518,1070.887,1026.208,1083.609L933.898,1096.33" class="er relationshipLine"></path><path style="stroke: gray; fill: none;" marker-start="url(#ONLY_ONE_START)" marker-end="url(#ZERO_OR_MORE_END)" d="M1187.757,445L1187.757,453.333C1187.757,461.667,1187.757,478.333,1161.59,496.511C1135.423,514.689,1083.089,534.379,1056.922,544.223L1030.755,554.068" class="er relationshipLine"></path><path style="stroke: gray; fill: none;" marker-start="url(#ONLY_ONE_START)" marker-end="url(#ZERO_OR_MORE_END)" d="M1137.67,412.095L987.041,425.912C836.412,439.73,535.153,467.365,384.524,495.766C233.895,524.167,233.895,553.333,233.895,582.5C233.895,611.667,233.895,640.833,220.04,663.75C206.186,686.667,178.476,703.333,164.622,711.667L150.767,720" class="er relationshipLine"></path><path style="stroke: gray; fill: none;" marker-start="url(#ONLY_ONE_START)" marker-end="url(#ZERO_OR_MORE_END)" d="M1230.614,370L1240.138,361.667C1249.662,353.333,1268.709,336.667,1228.233,316.967C1187.757,297.267,1087.757,274.534,1037.757,263.168L987.757,251.802" class="er relationshipLine"></path><g transform="translate(483.90380859375,20 )" id="entity-USERINTERFACE-af6325fa-cef7-5752-ad06-9ad54c2c24d3"><rect height="75" width="119.03125" y="0" x="0" class="er entityBox"></rect><text transform="translate(59.515625,37.5)" style="dominant-baseline: middle; text-anchor: middle; font-size: 12px;" y="0" x="0" id="text-entity-USERINTERFACE-af6325fa-cef7-5752-ad06-9ad54c2c24d3" class="er entityLabel">USER-INTERFACE</text></g><g transform="translate(20,720 )" id="entity-USERMANAGEMENT-88e80ea8-e888-5307-b976-6e331ef3569b"><rect height="75" width="136.841796875" y="0" x="0" class="er entityBox"></rect><text transform="translate(68.4208984375,37.5)" style="dominant-baseline: middle; text-anchor: middle; font-size: 12px;" y="0" x="0" id="text-entity-USERMANAGEMENT-88e80ea8-e888-5307-b976-6e331ef3569b" class="er entityLabel">USER-MANAGEMENT</text></g><g transform="translate(879.6103515625,545 )" id="entity-LISTINGMANAGEMENT-9d528971-5ec5-5d62-af73-cd4cc89bbc73"><rect height="75" width="151.14453125" y="0" x="0" class="er entityBox"></rect><text transform="translate(75.572265625,37.5)" style="dominant-baseline: middle; text-anchor: middle; font-size: 12px;" y="0" x="0" id="text-entity-LISTINGMANAGEMENT-9d528971-5ec5-5d62-af73-cd4cc89bbc73" class="er entityLabel">LISTING-MANAGEMENT</text></g><g transform="translate(462.94580078125,545 )" id="entity-PAYMENTMANAGEMENT-177554af-3be2-5f43-8b1a-d4bfff78fe0b"><rect height="75" width="156.283203125" y="0" x="0" class="er entityBox"></rect><text transform="translate(78.1416015625,37.5)" style="dominant-baseline: middle; text-anchor: middle; font-size: 12px;" y="0" x="0" id="text-entity-PAYMENTMANAGEMENT-177554af-3be2-5f43-8b1a-d4bfff78fe0b" class="er entityLabel">PAYMENT-MANAGEMENT</text></g><g transform="translate(817.9443359375,195 )" id="entity-NOTIFICATIONANDALERT-f168e739-4dd1-58a5-8513-e40e8af91621"><rect height="75" width="169.8125" y="0" x="0" class="er entityBox"></rect><text transform="translate(84.90625,37.5)" style="dominant-baseline: middle; text-anchor: middle; font-size: 12px;" y="0" x="0" id="text-entity-NOTIFICATIONANDALERT-f168e739-4dd1-58a5-8513-e40e8af91621" class="er entityLabel">NOTIFICATION-AND-ALERT</text></g><g transform="translate(1137.669921875,370 )" id="entity-RESERVATION-5109fe3f-ee2c-5a88-9977-a90a113e1f41"><rect height="75" width="100.173828125" y="0" x="0" class="er entityBox"></rect><text transform="translate(50.0869140625,37.5)" style="dominant-baseline: middle; text-anchor: middle; font-size: 12px;" y="0" x="0" id="text-entity-RESERVATION-5109fe3f-ee2c-5a88-9977-a90a113e1f41" class="er entityLabel">RESERVATION</text></g><g transform="translate(47.65185546875,895 )" id="entity-USERAUTHENTICATIONANDAUTHORIZATION-9c40bbeb-0280-528a-81af-16e61944a2e8"><rect height="75" width="272.486328125" y="0" x="0" class="er entityBox"></rect><text transform="translate(136.2431640625,37.5)" style="dominant-baseline: middle; text-anchor: middle; font-size: 12px;" y="0" x="0" id="text-entity-USERAUTHENTICATIONANDAUTHORIZATION-9c40bbeb-0280-528a-81af-16e61944a2e8" class="er entityLabel">USER-AUTHENTICATION-AND-AUTHORIZATION</text></g><g transform="translate(771.802734375,1070 )" id="entity-DATABASEMANAGEMENT-3dc6459c-d49d-5cd1-bd55-7c50782cf590"><rect height="75" width="162.095703125" y="0" x="0" class="er entityBox"></rect><text transform="translate(81.0478515625,37.5)" style="dominant-baseline: middle; text-anchor: middle; font-size: 12px;" y="0" x="0" id="text-entity-DATABASEMANAGEMENT-3dc6459c-d49d-5cd1-bd55-7c50782cf590" class="er entityLabel">DATABASE-MANAGEMENT</text></g><g transform="translate(1187.7568359375,895 )" id="entity-STORAGE-8a313753-ed0a-5f3e-8fb0-d93280bafeaa"><rect height="75" width="100" y="0" x="0" class="er entityBox"></rect><text transform="translate(50,37.5)" style="dominant-baseline: middle; text-anchor: middle; font-size: 12px;" y="0" x="0" id="text-entity-STORAGE-8a313753-ed0a-5f3e-8fb0-d93280bafeaa" class="er entityLabel">STORAGE</text></g><rect height="14" width="44.703125" y="184.49745178222656" x="-177.20501708984375" class="er relationshipLabelBox"></rect><text style="text-anchor: middle; dominant-baseline: middle; font-size: 12px;" y="191.49745178222656" x="-154.85345458984375" id="rel26" class="er relationshipLabel">depends</text><rect height="14" width="44.703125" y="332.2369384765625" x="695.5924072265625" class="er relationshipLabelBox"></rect><text style="text-anchor: middle; dominant-baseline: middle; font-size: 12px;" y="339.2369384765625" x="717.9439697265625" id="rel27" class="er relationshipLabel">depends</text><rect height="14" width="44.703125" y="305.30743408203125" x="350.61444091796875" class="er relationshipLabelBox"></rect><text style="text-anchor: middle; dominant-baseline: middle; font-size: 12px;" y="312.30743408203125" x="372.96600341796875" id="rel28" class="er relationshipLabel">depends</text><rect height="14" width="44.703125" y="106.56623077392578" x="745.190673828125" class="er relationshipLabelBox"></rect><text style="text-anchor: middle; dominant-baseline: middle; font-size: 12px;" y="113.56623077392578" x="767.542236328125" id="rel29" class="er relationshipLabel">depends</text><rect height="14" width="44.703125" y="122.40185546875" x="923.9364013671875" class="er relationshipLabelBox"></rect><text style="text-anchor: middle; dominant-baseline: middle; font-size: 12px;" y="129.40185546875" x="946.2879638671875" id="rel30" class="er relationshipLabel">depends</text><rect height="14" width="44.703125" y="277.41925048828125" x="-288.4565734863281" class="er relationshipLabelBox"></rect><text style="text-anchor: middle; dominant-baseline: middle; font-size: 12px;" y="284.41925048828125" x="-266.1050109863281" id="rel31" class="er relationshipLabel">depends</text><rect height="14" width="44.703125" y="1029.2962646484375" x="-60.06675720214844" class="er relationshipLabelBox"></rect><text style="text-anchor: middle; dominant-baseline: middle; font-size: 12px;" y="1036.2962646484375" x="-37.71519470214844" id="rel32" class="er relationshipLabel">depends</text><rect height="14" width="44.703125" y="844.980224609375" x="79.46802520751953" class="er relationshipLabelBox"></rect><text style="text-anchor: middle; dominant-baseline: middle; font-size: 12px;" y="851.980224609375" x="101.81958770751953" id="rel33" class="er relationshipLabel">depends</text><rect height="14" width="44.703125" y="808.9920654296875" x="336.3841552734375" class="er relationshipLabelBox"></rect><text style="text-anchor: middle; dominant-baseline: middle; font-size: 12px;" y="815.9920654296875" x="358.7357177734375" id="rel34" class="er relationshipLabel">depends</text><rect height="14" width="44.703125" y="1048.6622314453125" x="443.5328674316406" class="er relationshipLabelBox"></rect><text style="text-anchor: middle; dominant-baseline: middle; font-size: 12px;" y="1055.6622314453125" x="465.8844299316406" id="rel35" class="er relationshipLabel">depends</text><rect height="14" width="44.703125" y="823.2052001953125" x="797.9244384765625" class="er relationshipLabelBox"></rect><text style="text-anchor: middle; dominant-baseline: middle; font-size: 12px;" y="830.2052001953125" x="820.2760009765625" id="rel36" class="er relationshipLabel">depends</text><rect height="14" width="44.703125" y="622.9071044921875" x="392.76446533203125" class="er relationshipLabelBox"></rect><text style="text-anchor: middle; dominant-baseline: middle; font-size: 12px;" y="629.9071044921875" x="415.11602783203125" id="rel37" class="er relationshipLabel">depends</text><rect height="14" width="44.703125" y="682.6256103515625" x="1197.8472900390625" class="er relationshipLabelBox"></rect><text style="text-anchor: middle; dominant-baseline: middle; font-size: 12px;" y="689.6256103515625" x="1220.1988525390625" id="rel38" class="er relationshipLabel">depends</text><rect height="14" width="44.703125" y="696.908935546875" x="1046.96533203125" class="er relationshipLabelBox"></rect><text style="text-anchor: middle; dominant-baseline: middle; font-size: 12px;" y="703.908935546875" x="1069.31689453125" id="rel39" class="er relationshipLabel">depends</text><rect height="14" width="44.703125" y="628.3900756835938" x="219.76795959472656" class="er relationshipLabelBox"></rect><text style="text-anchor: middle; dominant-baseline: middle; font-size: 12px;" y="635.3900756835938" x="242.11952209472656" id="rel40" class="er relationshipLabel">depends</text><rect height="14" width="44.703125" y="762.83203125" x="368.6799011230469" class="er relationshipLabelBox"></rect><text style="text-anchor: middle; dominant-baseline: middle; font-size: 12px;" y="769.83203125" x="391.0314636230469" id="rel41" class="er relationshipLabel">depends</text><rect height="14" width="44.703125" y="1042.746337890625" x="1077.98291015625" class="er relationshipLabelBox"></rect><text style="text-anchor: middle; dominant-baseline: middle; font-size: 12px;" y="1049.746337890625" x="1100.33447265625" id="rel42" class="er relationshipLabel">depends</text><rect height="14" width="44.703125" y="688.6624755859375" x="1365.4053955078125" class="er relationshipLabelBox"></rect><text style="text-anchor: middle; dominant-baseline: middle; font-size: 12px;" y="695.6624755859375" x="1387.7569580078125" id="rel43" class="er relationshipLabel">depends</text><rect height="14" width="44.703125" y="303.9511413574219" x="275.3943176269531" class="er relationshipLabelBox"></rect><text style="text-anchor: middle; dominant-baseline: middle; font-size: 12px;" y="310.9511413574219" x="297.7458801269531" id="rel44" class="er relationshipLabel">depends</text><rect height="14" width="44.703125" y="289.0107727050781" x="1081.2496337890625" class="er relationshipLabelBox"></rect><text style="text-anchor: middle; dominant-baseline: middle; font-size: 12px;" y="296.0107727050781" x="1103.6011962890625" id="rel45" class="er relationshipLabel">depends</text><rect height="14" width="44.703125" y="340.36907958984375" x="607.2523803710938" class="er relationshipLabelBox"></rect><text style="text-anchor: middle; dominant-baseline: middle; font-size: 12px;" y="347.36907958984375" x="629.6039428710938" id="rel46" class="er relationshipLabel">depends</text><rect height="14" width="44.703125" y="892.7188720703125" x="1465.4053955078125" class="er relationshipLabelBox"></rect><text style="text-anchor: middle; dominant-baseline: middle; font-size: 12px;" y="899.7188720703125" x="1487.7569580078125" id="rel47" class="er relationshipLabel">depends</text><rect height="14" width="44.703125" y="509.1717529296875" x="1103.3092041015625" class="er relationshipLabelBox"></rect><text style="text-anchor: middle; dominant-baseline: middle; font-size: 12px;" y="516.1717529296875" x="1125.6607666015625" id="rel48" class="er relationshipLabel">depends</text><rect height="14" width="44.703125" y="460.4176940917969" x="557.526123046875" class="er relationshipLabelBox"></rect><text style="text-anchor: middle; dominant-baseline: middle; font-size: 12px;" y="467.4176940917969" x="579.877685546875" id="rel49" class="er relationshipLabel">depends</text><rect height="14" width="44.703125" y="282.19805908203125" x="1122.675537109375" class="er relationshipLabelBox"></rect><text style="text-anchor: middle; dominant-baseline: middle; font-size: 12px;" y="289.19805908203125" x="1145.027099609375" id="rel50" class="er relationshipLabel">depends</text></svg>