<?xml version="1.0" encoding="iso-8859-1"?>
<!-- Uploaded to: SVG Repo, www.svgrepo.com, Generator: SVG Repo Mixer Tools -->
<svg fill="#000000" height="800px" width="800px" version="1.1" id="Layer_1" xmlns="http://www.w3.org/2000/svg" xmlns:xlink="http://www.w3.org/1999/xlink" 
	 viewBox="0 0 512 512" xml:space="preserve">
<g>
	<g>
		<path d="M437.019,74.981C388.668,26.629,324.38,0,256,0S123.332,26.628,74.981,74.981C26.63,123.333,0.001,187.619,0.001,255.999
			S26.63,388.668,74.981,437.02C123.332,485.371,187.62,512,256,512c68.381,0,132.668-26.63,181.019-74.982
			s74.98-112.639,74.98-181.019S485.37,123.332,437.019,74.981z M415.511,415.51c-42.606,42.606-99.256,66.071-159.511,66.071
			S139.095,458.117,96.489,415.51s-66.071-99.256-66.071-159.511S53.882,139.095,96.489,96.489S195.745,30.417,256,30.417
			c60.255,0,116.905,23.465,159.511,66.071s66.071,99.256,66.071,159.511S458.117,372.904,415.511,415.51z"/>
	</g>
</g>
<g>
	<g>
		<path d="M256,98.087c-87.073,0-157.912,70.839-157.912,157.912S168.927,413.912,256,413.912s157.912-70.839,157.912-157.912
			S343.073,98.087,256,98.087z M256,383.494c-70.301,0-127.495-57.193-127.495-127.495S185.699,128.505,256,128.505
			s127.495,57.193,127.495,127.495S326.301,383.494,256,383.494z"/>
	</g>
</g>
</svg>