<?xml version="1.0" encoding="iso-8859-1"?>
<!-- Uploaded to: SVG Repo, www.svgrepo.com, Generator: SVG Repo Mixer Tools -->
<!DOCTYPE svg PUBLIC "-//W3C//DTD SVG 1.1//EN" "http://www.w3.org/Graphics/SVG/1.1/DTD/svg11.dtd">
<svg fill="#000000" version="1.1" id="Capa_1" xmlns="http://www.w3.org/2000/svg" xmlns:xlink="http://www.w3.org/1999/xlink" 
	 width="800px" height="800px" viewBox="0 0 43.473 43.473"
	 xml:space="preserve">
<g>
	<path d="M39.351,12.784c-2.274,0-4.125,1.851-4.125,4.125c0,1.539,0.856,2.869,2.111,3.577c-0.688,5.591-3.69,10.464-8.021,13.648
		c-0.553-0.611-1.342-1.006-2.229-1.006h-0.779C31.498,30.09,35,24.469,35,18.033c0-9.649-7.852-17.5-17.5-17.5
		C7.85,0.533,0,8.384,0,18.033c0,6.436,3.502,12.057,8.689,15.096H7.912c-1.658,0-3,1.344-3,3v3.811c0,1.656,1.342,3,3,3h19.176
		c1.656,0,3-1.344,3-3v-2.67c5.506-3.615,9.369-9.525,10.229-16.361c1.807-0.438,3.156-2.059,3.156-3.999
		C43.476,14.634,41.625,12.784,39.351,12.784z M17.504,13.384c2.566,0,4.648,2.082,4.648,4.649c0,2.567-2.083,4.648-4.648,4.648
		c-2.568,0-4.647-2.081-4.647-4.648C12.856,15.466,14.935,13.384,17.504,13.384z M39.351,15.784c0.619,0,1.125,0.505,1.125,1.125
		s-0.506,1.125-1.125,1.125c-0.62,0-1.125-0.505-1.125-1.125S38.73,15.784,39.351,15.784z"/>
</g>
</svg>