<?xml version="1.0" encoding="iso-8859-1"?>
<!-- Uploaded to: SVG Repo, www.svgrepo.com, Generator: SVG Repo Mixer Tools -->
<!DOCTYPE svg PUBLIC "-//W3C//DTD SVG 1.1//EN" "http://www.w3.org/Graphics/SVG/1.1/DTD/svg11.dtd">
<svg fill="#000000" version="1.1" id="Capa_1" xmlns="http://www.w3.org/2000/svg" xmlns:xlink="http://www.w3.org/1999/xlink" 
	 width="800px" height="800px" viewBox="0 0 55 55" xml:space="preserve">
<g>
	<path d="M53.5,42.429h-8.375v-25.5H53.5c0.828,0,1.5-0.672,1.5-1.5s-0.672-1.5-1.5-1.5h-8.451c-0.291-2.898-1.438-6.47-2.852-8.684
		l-0.366-0.573c-0.99-1.549-2.433-2.438-3.956-2.438s-2.966,0.889-3.957,2.438l-0.363,0.571c-1.416,2.214-2.562,5.786-2.854,8.685
		h-6.402c-0.291-2.898-1.436-6.47-2.851-8.684l-0.366-0.573c-0.99-1.549-2.432-2.438-3.956-2.438s-2.966,0.889-3.957,2.438
		l-0.364,0.571c-1.416,2.214-2.561,5.786-2.852,8.685H1.5c-0.828,0-1.5,0.672-1.5,1.5s0.672,1.5,1.5,1.5h8.375v25.501H1.5
		c-0.828,0-1.5,0.672-1.5,1.5s0.672,1.5,1.5,1.5h8.375v0.836c0,3.584,2.916,6.5,6.5,6.5h1.5c3.584,0,6.5-2.916,6.5-6.5v-0.836h6.25
		v0.838c0,3.584,2.916,6.5,6.5,6.5h1.5c3.584,0,6.5-2.916,6.5-6.5v-0.838H53.5c0.828,0,1.5-0.672,1.5-1.5S54.328,42.429,53.5,42.429
		z M21.375,46.267c0,1.93-1.57,3.5-3.5,3.5h-1.5c-1.93,0-3.5-1.57-3.5-3.5v-31c0-2.474,1.125-6.323,2.457-8.407l0.364-0.571
		c0.428-0.669,0.948-1.053,1.429-1.053c0.48,0,1.001,0.384,1.428,1.052l0.366,0.573c1.331,2.083,2.456,5.933,2.456,8.406V46.267z
		 M24.375,42.429v-25.5h6.25v25.5H24.375z M42.125,46.267c0,1.93-1.57,3.5-3.5,3.5h-1.5c-1.93,0-3.5-1.57-3.5-3.5v-31
		c0-2.474,1.125-6.323,2.457-8.407l0.363-0.571c0.429-0.669,0.949-1.053,1.43-1.053s1.001,0.384,1.428,1.052l0.366,0.573
		c1.331,2.083,2.456,5.933,2.456,8.406V46.267z M19.125,43.929c0,1.105-0.895,2-2,2s-2-0.895-2-2c0-1.104,0.895-2,2-2
		S19.125,42.824,19.125,43.929z M39.875,43.929c0,1.105-0.895,2-2,2s-2-0.895-2-2c0-1.104,0.895-2,2-2S39.875,42.824,39.875,43.929z
		 M19.125,15.429c0,1.105-0.895,2-2,2s-2-0.895-2-2s0.895-2,2-2S19.125,14.324,19.125,15.429z M39.875,15.429c0,1.105-0.895,2-2,2
		s-2-0.895-2-2s0.895-2,2-2S39.875,14.324,39.875,15.429z"/>
</g>
</svg>