<?xml version="1.0" encoding="iso-8859-1"?>
<!-- Uploaded to: SVG Repo, www.svgrepo.com, Generator: SVG Repo Mixer Tools -->
<svg fill="#000000" height="800px" width="800px" version="1.1" id="Layer_1" xmlns="http://www.w3.org/2000/svg" xmlns:xlink="http://www.w3.org/1999/xlink" 
	 viewBox="0 0 512.001 512.001" xml:space="preserve">
<g>
	<g>
		<path d="M279.166,182.198c12.854,9.992,28.221,14.907,43.534,14.907c18.286,0,36.493-7.01,50.24-20.757
			c6.549-6.548,6.549-17.165,0-23.714c-6.548-6.548-17.165-6.548-23.714,0c-13.326,13.326-34.596,14.656-49.476,3.087
			l-19.657-15.282c-2.219-1.724-4.735-2.795-7.323-3.258v-47.72c9.144,6.005,19.617,8.97,30.063,8.97
			c14.124,0,28.19-5.417,38.808-16.035c6.548-6.549,6.548-17.165,0-23.714c-6.549-6.55-17.165-6.548-23.714,0
			c-7.579,7.581-19.678,8.334-28.141,1.754l-13.803-10.73c-1.015-0.788-2.096-1.428-3.214-1.95V16.768
			C272.769,7.508,265.261,0,256,0s-16.769,7.508-16.769,16.768v30.989c-1.117,0.522-2.198,1.161-3.213,1.95l-13.803,10.73
			c-8.463,6.58-20.56,5.824-28.14-1.754c-6.549-6.549-17.165-6.549-23.714,0c-6.549,6.548-6.549,17.164,0,23.714
			c10.619,10.619,24.683,16.035,38.809,16.035c10.443,0,20.918-2.966,30.062-8.97v47.721c-2.587,0.463-5.104,1.533-7.323,3.258
			l-19.658,15.282c-14.879,11.567-36.148,10.24-49.476-3.086c-6.548-6.548-17.165-6.548-23.714,0
			c-6.549,6.548-6.549,17.165,0,23.714c13.748,13.749,31.952,20.757,50.24,20.757c15.311,0,30.683-4.917,43.533-14.907l6.398-4.974
			v244.588c-16.942,3.821-32.067,13.399-42.945,27.564l-27.367,35.641c-5.64,7.345-4.258,17.872,3.087,23.513
			c7.345,5.64,17.872,4.257,23.513-3.088l27.367-35.641c4.379-5.702,10.001-10.057,16.346-12.832v27.08
			c0,9.261,7.508,16.768,16.768,16.768s16.769-7.508,16.769-16.768V456.97c6.344,2.775,11.967,7.13,16.346,12.832l27.367,35.641
			c3.302,4.301,8.279,6.556,13.312,6.556c3.564,0,7.156-1.132,10.201-3.47c7.345-5.641,8.727-16.168,3.087-23.513l-27.367-35.641
			c-10.877-14.165-26.002-23.743-42.945-27.564V177.225L279.166,182.198z"/>
	</g>
</g>
</svg>