<!DOCTYPE svg PUBLIC "-//W3C//DTD SVG 1.1//EN" "http://www.w3.org/Graphics/SVG/1.1/DTD/svg11.dtd">
<!-- Uploaded to: SVG Repo, www.svgrepo.com, Transformed by: SVG Repo Mixer Tools -->
<svg fill="#000000" width="800px" height="800px" viewBox="0 0 24 24" id="frying-pan-4" data-name="Flat Color" xmlns="http://www.w3.org/2000/svg" class="icon flat-color">
<g id="SVGRepo_bgCarrier" stroke-width="0"/>
<g id="SVGRepo_tracerCarrier" stroke-linecap="round" stroke-linejoin="round"/>
<g id="SVGRepo_iconCarrier">
<path id="secondary" d="M19,10a1,1,0,0,1-1-1V7a1,1,0,0,1,2,0V9A1,1,0,0,1,19,10Zm-4,0a1,1,0,0,1-1-1V7a1,1,0,0,1,2,0V9A1,1,0,0,1,15,10Zm-4,0a1,1,0,0,1-1-1V7a1,1,0,0,1,2,0V9A1,1,0,0,1,11,10Z" style="fill: #000000;"/>
<path id="primary" d="M21,12H3a1,1,0,0,0,0,2H8v1a3,3,0,0,0,3,3h8a3,3,0,0,0,3-3V13A1,1,0,0,0,21,12Z" style="fill: #000000;"/>
</g>
</svg>